<svg xmlns="http://www.w3.org/2000/svg" viewBox="0 0 1600 1000" preserveAspectRatio="xMidYMid slice">
  <defs>
    <linearGradient id="sky" x1="0" y1="0" x2="1" y2="1">
      <stop offset="0" stop-color="#f7fbff"/>
      <stop offset="0.42" stop-color="#eef6ff"/>
      <stop offset="1" stop-color="#f7f3ff"/>
    </linearGradient>
    <linearGradient id="lake" x1="0" y1="0" x2="1" y2="0">
      <stop offset="0" stop-color="#cfe9ff" stop-opacity="0.7"/>
      <stop offset="0.5" stop-color="#e8f6ff" stop-opacity="0.9"/>
      <stop offset="1" stop-color="#ddd9ff" stop-opacity="0.64"/>
    </linearGradient>
    <linearGradient id="hillA" x1="0" y1="0" x2="1" y2="0">
      <stop offset="0" stop-color="#dfeeff"/>
      <stop offset="1" stop-color="#e8e4ff"/>
    </linearGradient>
    <linearGradient id="hillB" x1="0" y1="0" x2="1" y2="0">
      <stop offset="0" stop-color="#c8e4ef"/>
      <stop offset="1" stop-color="#d7d7f4"/>
    </linearGradient>
    <filter id="soft" x="-10%" y="-10%" width="120%" height="120%">
      <feGaussianBlur stdDeviation="18"/>
    </filter>
  </defs>
  <rect width="1600" height="1000" fill="url(#sky)"/>
  <path d="M0 355 C210 235 390 365 580 280 C780 190 920 305 1100 238 C1300 165 1450 245 1600 194 L1600 1000 L0 1000 Z" fill="#ffffff" opacity="0.5" filter="url(#soft)"/>
  <path d="M0 470 C190 350 350 430 520 350 C730 252 930 368 1120 300 C1300 236 1450 300 1600 250 L1600 1000 L0 1000 Z" fill="url(#hillA)" opacity="0.74"/>
  <path d="M0 560 C190 455 360 520 540 440 C760 344 920 470 1110 400 C1310 326 1450 410 1600 348 L1600 1000 L0 1000 Z" fill="url(#hillB)" opacity="0.68"/>
  <path d="M0 685 C230 650 390 710 620 662 C850 614 1005 690 1220 646 C1405 608 1510 645 1600 620 L1600 1000 L0 1000 Z" fill="url(#lake)" opacity="0.86"/>
  <path d="M80 742 C290 710 430 768 650 724 C870 682 1050 748 1280 702 C1420 674 1518 688 1600 668" fill="none" stroke="#ffffff" stroke-opacity="0.46" stroke-width="3"/>
  <path d="M0 830 C235 780 430 855 650 812 C850 772 1025 845 1240 802 C1415 766 1510 792 1600 770 L1600 1000 L0 1000 Z" fill="#ffffff" opacity="0.38"/>
</svg>
